<svg xmlns="http://www.w3.org/2000/svg" width="24" height="24" fill="none"><path fill="#fff" d="M12 0c1.102 0 2.164.14 3.188.422a11.82 11.82 0 0 1 2.87 1.207c.891.523 1.7 1.148 2.426 1.875.727.726 1.352 1.539 1.875 2.437a12.084 12.084 0 0 1 1.22 9.246 11.82 11.82 0 0 1-1.208 2.872c-.523.89-1.148 1.699-1.875 2.425a11.916 11.916 0 0 1-2.437 1.875 12.084 12.084 0 0 1-9.247 1.22 11.82 11.82 0 0 1-2.87-1.208 12.05 12.05 0 0 1-2.426-1.875A11.912 11.912 0 0 1 1.64 18.06a12.137 12.137 0 0 1-1.207-2.86 12.168 12.168 0 0 1-.012-6.386A11.82 11.82 0 0 1 1.629 5.94c.523-.89 1.148-1.699 1.875-2.425A11.91 11.91 0 0 1 5.94 1.64 12.137 12.137 0 0 1 8.801.434 12.168 12.168 0 0 1 12 0Zm0 22.5c.96 0 1.887-.125 2.777-.375.891-.25 1.727-.602 2.508-1.055a10.136 10.136 0 0 0 2.133-1.652 10.938 10.938 0 0 0 1.64-2.121c.454-.766.81-1.602 1.067-2.508A9.847 9.847 0 0 0 22.5 12c0-.96-.125-1.887-.375-2.777-.25-.891-.602-1.727-1.055-2.508a10.133 10.133 0 0 0-1.652-2.133 10.938 10.938 0 0 0-2.121-1.64 10.588 10.588 0 0 0-2.508-1.067A9.846 9.846 0 0 0 12 1.5c-.508 0-1.008.035-1.5.105v20.79c.492.07.992.105 1.5.105Z" opacity=".5"/></svg>