<svg xmlns="http://www.w3.org/2000/svg" width="30" height="20" fill="none"><path fill="#000" fill-rule="evenodd" d="M0 18.889c0-.295.144-.577.4-.786.255-.208.602-.325.964-.325h27.272c.362 0 .709.117.965.325.255.209.399.491.399.786 0 .295-.144.577-.4.786a1.535 1.535 0 0 1-.964.325H1.364c-.362 0-.709-.117-.965-.325-.255-.209-.399-.491-.399-.786ZM0 10c0-.295.144-.577.4-.786.255-.208.602-.325.964-.325h27.272c.362 0 .709.117.965.325.255.209.399.491.399.786 0 .295-.144.577-.4.786a1.535 1.535 0 0 1-.964.325H1.364c-.362 0-.709-.117-.965-.325C.144 10.577 0 10.295 0 10Zm0-8.889C0 .816.144.534.4.325.654.117 1.001 0 1.363 0h27.272c.362 0 .709.117.965.325.255.209.399.491.399.786 0 .295-.144.577-.4.786a1.535 1.535 0 0 1-.964.325H1.364c-.362 0-.709-.117-.965-.325C.144 1.688 0 1.406 0 1.11Z" clip-rule="evenodd"/></svg>